<svg width="96" height="60" viewBox="0 0 96 60" fill="none" xmlns="http://www.w3.org/2000/svg">
  <mask id="mask0_7_20" style="mask-type:alpha" maskUnits="userSpaceOnUse" x="0" y="0" width="96"
    height="60">
    <path
      d="M48 0C26.1818 0 7.54909 12.44 0 30C7.54909 47.56 26.1818 60 48 60C69.8182 60 88.4509 47.56 96 30C88.4509 12.44 69.8182 0 48 0ZM48 50C35.9564 50 26.1818 41.04 26.1818 30C26.1818 18.96 35.9564 10 48 10C60.0436 10 69.8182 18.96 69.8182 30C69.8182 41.04 60.0436 50 48 50ZM48 18C40.7564 18 34.9091 23.36 34.9091 30C34.9091 36.64 40.7564 42 48 42C55.2436 42 61.0909 36.64 61.0909 30C61.0909 23.36 55.2436 18 48 18Z"
      fill="black" />
  </mask>
  <g mask="url(#mask0_7_20)">
    <rect y="-18" width="104.727" height="96" fill="#D9D9D9" />
  </g>
</svg>
  